<?xml-stylesheet type="text/css" href="../css/custom.css" ?>
<svg  class="social-icon-svg" fill="#000" xmlns="http://www.w3.org/2000/svg" viewBox="0 0 350.0934 341.7189"><g id="Layer_2" data-name="Layer 2"><g id="Layer_1-2" data-name="Layer 1"><path d="M350.0934,184.506c-.63,5.4113-1.1793,10.8334-1.9043,16.232a164.5692,164.5692,0,0,1-24.0819,66.2082c-14.2436,22.6969-32.3983,41.6574-55.1086,56.0843A173.1376,173.1376,0,0,1,231.15,340.9691c-7.3747,2.4779-12.4756-1.345-12.5127-9.1141-.073-15.27.0246-30.5413-.0435-45.8115-.0415-9.3053-.9732-18.4691-6.0564-26.6187-1.4834-2.3782-3.3613-4.5105-5.12-6.8365,6.8317-1.278,13.682-2.1867,20.3341-3.8759,17.8616-4.5354,33.8317-12.43,44.713-28.0262,7.9938-11.4572,11.6514-24.6153,13.2625-38.3334,1.2518-10.66,1.608-21.3553-.6377-31.9678a62.5878,62.5878,0,0,0-14.02-28.481,5.6033,5.6033,0,0,1-1.2389-6.2981c4.697-14.192,2.7311-28.0906-2.5437-41.7083a3.6464,3.6464,0,0,0-2.55-1.6455c-6.2079-.9283-12.0633.8249-17.5083,3.3978-8.8261,4.17-17.361,8.9534-26.1007,13.3136a8.0155,8.0155,0,0,1-5.0376.8528,165.2591,165.2591,0,0,0-82.1436-.0076,7.5956,7.5956,0,0,1-5.3063-1.0461A125.8006,125.8006,0,0,0,93.0082,72.6991c-.22-.0581-.4351-.1405-.6577-.186-8.03-1.6426-9.4979-.724-11.7871,7.0453-3.6963,12.5449-4.3644,25.0474.0368,37.6a4.2427,4.2427,0,0,1-.7742,3.5163c-14.4289,16.3932-17.848,35.84-16.0437,56.805a100.3286,100.3286,0,0,0,9.7223,36.383c7.8545,15.8524,21.1585,25.5452,37.2723,31.2377,10.1172,3.5741,20.8413,5.4306,31.4575,8.0989.082-.5128.1433-.1071-.03.0736a37.21,37.21,0,0,0-9.8064,20.2658c-.1627.9774-.8368,2.3753-1.6164,2.6687-12.16,4.5764-24.3871,6.9834-36.4095-.3558-5.4638-3.3354-9.453-8.1552-12.6712-13.633-5.0478-8.5921-12.1646-14.8224-21.727-17.6594-3.4412-1.0209-7.3635-.7608-11.035-.5475-2.504.1455-3.3258,2.0224-1.6457,4.1221,1.5482,1.9347,3.124,4.1223,5.1961,5.3156,9.2007,5.2983,14.3554,13.7616,18.5662,22.9755,2.5092,5.49,4.66,11.0959,9.3115,15.3173,7.41,6.7248,16.3889,9.2618,26.0165,9.6841,8.1481.3575,16.3243.0737,24.87.0737a8.84,8.84,0,0,1,.1684,1.599c.1214,9.23.2471,18.46.3127,27.69.0641,9.0326-5.3582,12.7657-13.9249,9.7915-44.44-15.4289-77.0481-44.6459-98.808-85.9391C2.6146,223.5454-2.5641,190.147,1.1364,155.2854c3.8746-36.5009,18.3172-68.45,42.4147-95.86C68.7377,30.7769,100.0939,11.734,137.5665,4.1159c54.44-11.0677,104.1623.0456,147.6942,35.0341,33.0024,26.5256,53.4279,61.0369,61.6714,102.6149,1.2145,6.1255,1.6748,12.4,2.5072,18.6022.1631,1.2151.4333,2.4158.6541,3.6231Z"/></g></g></svg>